<mxfile host="65bd71144e">
    <diagram id="jcHLiNtcQrnJZIC3Teq0" name="ページ1">
        <mxGraphModel dx="1824" dy="2127" grid="1" gridSize="10" guides="1" tooltips="1" connect="1" arrows="1" fold="1" page="1" pageScale="1" pageWidth="827" pageHeight="1169" math="0" shadow="0">
            <root>
                <mxCell id="0"/>
                <mxCell id="1" parent="0"/>
                <mxCell id="21" value="" style="edgeStyle=none;html=1;entryX=0.5;entryY=0;entryDx=0;entryDy=0;" edge="1" parent="1" source="5" target="32">
                    <mxGeometry relative="1" as="geometry">
                        <mxPoint x="420" y="180" as="targetPoint"/>
                    </mxGeometry>
                </mxCell>
                <mxCell id="5" value="クイズアプリを開く" style="rounded=1;whiteSpace=wrap;html=1;" vertex="1" parent="1">
                    <mxGeometry x="354" y="40" width="120" height="60" as="geometry"/>
                </mxCell>
                <mxCell id="23" value="" style="edgeStyle=none;html=1;" edge="1" parent="1" target="22">
                    <mxGeometry relative="1" as="geometry">
                        <mxPoint x="354" y="210" as="sourcePoint"/>
                    </mxGeometry>
                </mxCell>
                <mxCell id="25" value="" style="edgeStyle=none;html=1;exitX=1;exitY=0.5;exitDx=0;exitDy=0;" edge="1" parent="1" source="32" target="24">
                    <mxGeometry relative="1" as="geometry">
                        <mxPoint x="474" y="210" as="sourcePoint"/>
                    </mxGeometry>
                </mxCell>
                <mxCell id="31" value="" style="edgeStyle=none;html=1;exitX=0;exitY=0.5;exitDx=0;exitDy=0;" edge="1" parent="1" source="32" target="22">
                    <mxGeometry relative="1" as="geometry">
                        <mxPoint x="354" y="210" as="sourcePoint"/>
                    </mxGeometry>
                </mxCell>
                <mxCell id="27" value="" style="edgeStyle=none;html=1;" edge="1" parent="1" source="22" target="26">
                    <mxGeometry relative="1" as="geometry">
                        <Array as="points">
                            <mxPoint x="214" y="600"/>
                        </Array>
                    </mxGeometry>
                </mxCell>
                <mxCell id="22" value="今日と同じ" style="whiteSpace=wrap;html=1;rounded=1;" vertex="1" parent="1">
                    <mxGeometry x="154" y="180" width="120" height="60" as="geometry"/>
                </mxCell>
                <mxCell id="96" value="" style="edgeStyle=none;html=1;" edge="1" parent="1" source="24" target="95">
                    <mxGeometry relative="1" as="geometry"/>
                </mxCell>
                <mxCell id="24" value="今日より前" style="whiteSpace=wrap;html=1;rounded=1;" vertex="1" parent="1">
                    <mxGeometry x="554" y="180" width="120" height="60" as="geometry"/>
                </mxCell>
                <mxCell id="109" value="" style="edgeStyle=none;html=1;" edge="1" parent="1" source="26" target="108">
                    <mxGeometry relative="1" as="geometry"/>
                </mxCell>
                <mxCell id="26" value="reviewQuizList生成" style="whiteSpace=wrap;html=1;rounded=1;" vertex="1" parent="1">
                    <mxGeometry x="354" y="570" width="120" height="60" as="geometry"/>
                </mxCell>
                <mxCell id="85" value="" style="edgeStyle=none;html=1;" edge="1" parent="1" source="28" target="84">
                    <mxGeometry relative="1" as="geometry"/>
                </mxCell>
                <mxCell id="28" value="個別のクイズの&lt;br&gt;stateを確認" style="whiteSpace=wrap;html=1;rounded=1;" vertex="1" parent="1">
                    <mxGeometry x="1120" y="290" width="120" height="60" as="geometry"/>
                </mxCell>
                <mxCell id="32" value="最後の復習日を確認" style="ellipse;whiteSpace=wrap;html=1;glass=0;" vertex="1" parent="1">
                    <mxGeometry x="376" y="170" width="76" height="80" as="geometry"/>
                </mxCell>
                <mxCell id="87" value="" style="edgeStyle=none;html=1;" edge="1" parent="1" source="84" target="86">
                    <mxGeometry relative="1" as="geometry"/>
                </mxCell>
                <mxCell id="92" value="" style="edgeStyle=none;html=1;" edge="1" parent="1" source="84" target="91">
                    <mxGeometry relative="1" as="geometry"/>
                </mxCell>
                <mxCell id="84" value="isAnswered" style="ellipse;whiteSpace=wrap;html=1;rounded=1;" vertex="1" parent="1">
                    <mxGeometry x="1140" y="420" width="80" height="80" as="geometry"/>
                </mxCell>
                <mxCell id="94" value="" style="edgeStyle=none;html=1;" edge="1" parent="1" source="86" target="93">
                    <mxGeometry relative="1" as="geometry"/>
                </mxCell>
                <mxCell id="86" value="false" style="whiteSpace=wrap;html=1;rounded=1;" vertex="1" parent="1">
                    <mxGeometry x="960" y="430" width="120" height="60" as="geometry"/>
                </mxCell>
                <mxCell id="119" value="" style="edgeStyle=none;html=1;" edge="1" parent="1" source="91" target="118">
                    <mxGeometry relative="1" as="geometry"/>
                </mxCell>
                <mxCell id="91" value="true" style="whiteSpace=wrap;html=1;rounded=1;" vertex="1" parent="1">
                    <mxGeometry x="1280" y="430" width="120" height="60" as="geometry"/>
                </mxCell>
                <mxCell id="93" value="return" style="whiteSpace=wrap;html=1;rounded=1;" vertex="1" parent="1">
                    <mxGeometry x="960" y="570" width="120" height="60" as="geometry"/>
                </mxCell>
                <mxCell id="106" value="" style="edgeStyle=none;html=1;" edge="1" parent="1" source="95" target="105">
                    <mxGeometry relative="1" as="geometry"/>
                </mxCell>
                <mxCell id="95" value="executeDailyFunction&lt;br&gt;実行" style="whiteSpace=wrap;html=1;rounded=1;" vertex="1" parent="1">
                    <mxGeometry x="554" y="270" width="120" height="60" as="geometry"/>
                </mxCell>
                <mxCell id="99" value="t" style="swimlane;startSize=0;glass=0;" vertex="1" parent="1">
                    <mxGeometry x="930" y="10" width="740" height="890" as="geometry"/>
                </mxCell>
                <mxCell id="104" value="個別のquizのstateに応じて、DBを更新する" style="whiteSpace=wrap;html=1;glass=0;" vertex="1" parent="99">
                    <mxGeometry x="20" y="20" width="170" height="60" as="geometry"/>
                </mxCell>
                <mxCell id="67" value="" style="shape=table;startSize=0;container=1;collapsible=0;childLayout=tableLayout;glass=0;" vertex="1" parent="99">
                    <mxGeometry x="380" y="80" width="200" height="150" as="geometry"/>
                </mxCell>
                <mxCell id="68" value="" style="shape=tableRow;horizontal=0;startSize=0;swimlaneHead=0;swimlaneBody=0;top=0;left=0;bottom=0;right=0;collapsible=0;dropTarget=0;fillColor=none;points=[[0,0.5],[1,0.5]];portConstraint=eastwest;glass=0;" vertex="1" parent="67">
                    <mxGeometry width="200" height="30" as="geometry"/>
                </mxCell>
                <mxCell id="69" value="id" style="shape=partialRectangle;html=1;whiteSpace=wrap;connectable=0;overflow=hidden;fillColor=none;top=0;left=0;bottom=0;right=0;pointerEvents=1;glass=0;" vertex="1" parent="68">
                    <mxGeometry width="73" height="30" as="geometry">
                        <mxRectangle width="73" height="30" as="alternateBounds"/>
                    </mxGeometry>
                </mxCell>
                <mxCell id="70" value="sampleID" style="shape=partialRectangle;html=1;whiteSpace=wrap;connectable=0;overflow=hidden;fillColor=none;top=0;left=0;bottom=0;right=0;pointerEvents=1;glass=0;" vertex="1" parent="68">
                    <mxGeometry x="73" width="127" height="30" as="geometry">
                        <mxRectangle width="127" height="30" as="alternateBounds"/>
                    </mxGeometry>
                </mxCell>
                <mxCell id="71" value="" style="shape=tableRow;horizontal=0;startSize=0;swimlaneHead=0;swimlaneBody=0;top=0;left=0;bottom=0;right=0;collapsible=0;dropTarget=0;fillColor=none;points=[[0,0.5],[1,0.5]];portConstraint=eastwest;glass=0;" vertex="1" parent="67">
                    <mxGeometry y="30" width="200" height="30" as="geometry"/>
                </mxCell>
                <mxCell id="72" value="quiz" style="shape=partialRectangle;html=1;whiteSpace=wrap;connectable=0;overflow=hidden;fillColor=none;top=0;left=0;bottom=0;right=0;pointerEvents=1;glass=0;" vertex="1" parent="71">
                    <mxGeometry width="73" height="30" as="geometry">
                        <mxRectangle width="73" height="30" as="alternateBounds"/>
                    </mxGeometry>
                </mxCell>
                <mxCell id="73" value="sample" style="shape=partialRectangle;html=1;whiteSpace=wrap;connectable=0;overflow=hidden;fillColor=none;top=0;left=0;bottom=0;right=0;pointerEvents=1;glass=0;" vertex="1" parent="71">
                    <mxGeometry x="73" width="127" height="30" as="geometry">
                        <mxRectangle width="127" height="30" as="alternateBounds"/>
                    </mxGeometry>
                </mxCell>
                <mxCell id="74" value="" style="shape=tableRow;horizontal=0;startSize=0;swimlaneHead=0;swimlaneBody=0;top=0;left=0;bottom=0;right=0;collapsible=0;dropTarget=0;fillColor=none;points=[[0,0.5],[1,0.5]];portConstraint=eastwest;glass=0;" vertex="1" parent="67">
                    <mxGeometry y="60" width="200" height="30" as="geometry"/>
                </mxCell>
                <mxCell id="75" value="stage" style="shape=partialRectangle;html=1;whiteSpace=wrap;connectable=0;overflow=hidden;fillColor=none;top=0;left=0;bottom=0;right=0;pointerEvents=1;glass=0;" vertex="1" parent="74">
                    <mxGeometry width="73" height="30" as="geometry">
                        <mxRectangle width="73" height="30" as="alternateBounds"/>
                    </mxGeometry>
                </mxCell>
                <mxCell id="76" value="2" style="shape=partialRectangle;html=1;whiteSpace=wrap;connectable=0;overflow=hidden;fillColor=none;top=0;left=0;bottom=0;right=0;pointerEvents=1;glass=0;" vertex="1" parent="74">
                    <mxGeometry x="73" width="127" height="30" as="geometry">
                        <mxRectangle width="127" height="30" as="alternateBounds"/>
                    </mxGeometry>
                </mxCell>
                <mxCell id="77" value="" style="shape=tableRow;horizontal=0;startSize=0;swimlaneHead=0;swimlaneBody=0;top=0;left=0;bottom=0;right=0;collapsible=0;dropTarget=0;fillColor=none;points=[[0,0.5],[1,0.5]];portConstraint=eastwest;glass=0;" vertex="1" parent="67">
                    <mxGeometry y="90" width="200" height="30" as="geometry"/>
                </mxCell>
                <mxCell id="78" value="inAnswerd" style="shape=partialRectangle;html=1;whiteSpace=wrap;connectable=0;overflow=hidden;fillColor=none;top=0;left=0;bottom=0;right=0;pointerEvents=1;glass=0;" vertex="1" parent="77">
                    <mxGeometry width="73" height="30" as="geometry">
                        <mxRectangle width="73" height="30" as="alternateBounds"/>
                    </mxGeometry>
                </mxCell>
                <mxCell id="79" value="true" style="shape=partialRectangle;html=1;whiteSpace=wrap;connectable=0;overflow=hidden;fillColor=none;top=0;left=0;bottom=0;right=0;pointerEvents=1;glass=0;" vertex="1" parent="77">
                    <mxGeometry x="73" width="127" height="30" as="geometry">
                        <mxRectangle width="127" height="30" as="alternateBounds"/>
                    </mxGeometry>
                </mxCell>
                <mxCell id="80" value="" style="shape=tableRow;horizontal=0;startSize=0;swimlaneHead=0;swimlaneBody=0;top=0;left=0;bottom=0;right=0;collapsible=0;dropTarget=0;fillColor=none;points=[[0,0.5],[1,0.5]];portConstraint=eastwest;glass=0;" vertex="1" parent="67">
                    <mxGeometry y="120" width="200" height="30" as="geometry"/>
                </mxCell>
                <mxCell id="81" value="reviewDate" style="shape=partialRectangle;html=1;whiteSpace=wrap;connectable=0;overflow=hidden;fillColor=none;top=0;left=0;bottom=0;right=0;pointerEvents=1;glass=0;" vertex="1" parent="80">
                    <mxGeometry width="73" height="30" as="geometry">
                        <mxRectangle width="73" height="30" as="alternateBounds"/>
                    </mxGeometry>
                </mxCell>
                <mxCell id="82" value="1677682800000" style="shape=partialRectangle;html=1;whiteSpace=wrap;connectable=0;overflow=hidden;fillColor=none;top=0;left=0;bottom=0;right=0;pointerEvents=1;glass=0;" vertex="1" parent="80">
                    <mxGeometry x="73" width="127" height="30" as="geometry">
                        <mxRectangle width="127" height="30" as="alternateBounds"/>
                    </mxGeometry>
                </mxCell>
                <mxCell id="4" value="Firebase(DB)&lt;br&gt;QuizList" style="rounded=1;whiteSpace=wrap;html=1;" vertex="1" parent="99">
                    <mxGeometry x="384" y="10" width="120" height="60" as="geometry"/>
                </mxCell>
                <mxCell id="150" value="" style="edgeStyle=none;html=1;" edge="1" parent="99" source="118" target="149">
                    <mxGeometry relative="1" as="geometry"/>
                </mxCell>
                <mxCell id="154" value="" style="edgeStyle=none;html=1;" edge="1" parent="99" source="118" target="153">
                    <mxGeometry relative="1" as="geometry"/>
                </mxCell>
                <mxCell id="118" value="ローカルstate更新" style="whiteSpace=wrap;html=1;rounded=1;" vertex="1" parent="99">
                    <mxGeometry x="350" y="560" width="120" height="60" as="geometry"/>
                </mxCell>
                <mxCell id="149" value="reviewDate=lastExecutedDate&lt;br&gt;isAnswered=false" style="whiteSpace=wrap;html=1;rounded=1;" vertex="1" parent="99">
                    <mxGeometry x="550" y="560" width="190" height="60" as="geometry"/>
                </mxCell>
                <mxCell id="153" value="reduxにdispatch" style="whiteSpace=wrap;html=1;rounded=1;" vertex="1" parent="99">
                    <mxGeometry x="350" y="700" width="120" height="60" as="geometry"/>
                </mxCell>
                <mxCell id="146" value="" style="edgeStyle=none;html=1;" edge="1" parent="1" source="105" target="145">
                    <mxGeometry relative="1" as="geometry"/>
                </mxCell>
                <mxCell id="105" value="[DB]&lt;br&gt;quizList&lt;br&gt;更新" style="whiteSpace=wrap;html=1;rounded=1;" vertex="1" parent="1">
                    <mxGeometry x="554" y="380" width="120" height="60" as="geometry"/>
                </mxCell>
                <mxCell id="107" value="" style="endArrow=classic;html=1;entryX=1;entryY=0.5;entryDx=0;entryDy=0;exitX=0.5;exitY=1;exitDx=0;exitDy=0;" edge="1" parent="1" source="145" target="26">
                    <mxGeometry width="50" height="50" relative="1" as="geometry">
                        <mxPoint x="610" y="470" as="sourcePoint"/>
                        <mxPoint x="660" y="420" as="targetPoint"/>
                        <Array as="points">
                            <mxPoint x="614" y="600"/>
                        </Array>
                    </mxGeometry>
                </mxCell>
                <mxCell id="111" value="" style="edgeStyle=none;html=1;" edge="1" parent="1" source="108" target="110">
                    <mxGeometry relative="1" as="geometry"/>
                </mxCell>
                <mxCell id="108" value="各クイズに回答" style="whiteSpace=wrap;html=1;rounded=1;" vertex="1" parent="1">
                    <mxGeometry x="354" y="710" width="120" height="60" as="geometry"/>
                </mxCell>
                <mxCell id="114" value="" style="edgeStyle=none;html=1;" edge="1" parent="1" source="110" target="113">
                    <mxGeometry relative="1" as="geometry"/>
                </mxCell>
                <mxCell id="110" value="各クイズのstateを更新" style="whiteSpace=wrap;html=1;rounded=1;" vertex="1" parent="1">
                    <mxGeometry x="354" y="850" width="120" height="60" as="geometry"/>
                </mxCell>
                <mxCell id="113" value="アプリケーション閉じる" style="whiteSpace=wrap;html=1;rounded=1;" vertex="1" parent="1">
                    <mxGeometry x="354" y="990" width="120" height="60" as="geometry"/>
                </mxCell>
                <mxCell id="115" value="" style="endArrow=classic;html=1;entryX=0.5;entryY=0;entryDx=0;entryDy=0;" edge="1" parent="1" target="5">
                    <mxGeometry width="50" height="50" relative="1" as="geometry">
                        <mxPoint x="414" y="1050" as="sourcePoint"/>
                        <mxPoint x="464" y="1000" as="targetPoint"/>
                        <Array as="points">
                            <mxPoint x="414" y="1120"/>
                            <mxPoint x="40" y="1120"/>
                            <mxPoint x="40" y="-40"/>
                            <mxPoint x="414" y="-40"/>
                        </Array>
                    </mxGeometry>
                </mxCell>
                <mxCell id="117" value="" style="shape=singleArrow;whiteSpace=wrap;html=1;glass=0;" vertex="1" parent="1">
                    <mxGeometry x="720" y="380" width="180" height="60" as="geometry"/>
                </mxCell>
                <mxCell id="120" value="Firebase(DB)" style="rounded=1;whiteSpace=wrap;html=1;" vertex="1" parent="1">
                    <mxGeometry x="540" y="-90" width="120" height="60" as="geometry"/>
                </mxCell>
                <mxCell id="134" value="" style="shape=table;startSize=0;container=1;collapsible=0;childLayout=tableLayout;glass=0;" vertex="1" parent="1">
                    <mxGeometry x="540" y="-20" width="250" height="120" as="geometry"/>
                </mxCell>
                <mxCell id="135" value="" style="shape=tableRow;horizontal=0;startSize=0;swimlaneHead=0;swimlaneBody=0;top=0;left=0;bottom=0;right=0;collapsible=0;dropTarget=0;fillColor=none;points=[[0,0.5],[1,0.5]];portConstraint=eastwest;glass=0;" vertex="1" parent="134">
                    <mxGeometry width="250" height="40" as="geometry"/>
                </mxCell>
                <mxCell id="136" value="books" style="shape=partialRectangle;html=1;whiteSpace=wrap;connectable=0;overflow=hidden;fillColor=none;top=0;left=0;bottom=0;right=0;pointerEvents=1;glass=0;" vertex="1" parent="135">
                    <mxGeometry width="125" height="40" as="geometry">
                        <mxRectangle width="125" height="40" as="alternateBounds"/>
                    </mxGeometry>
                </mxCell>
                <mxCell id="137" value="本" style="shape=partialRectangle;html=1;whiteSpace=wrap;connectable=0;overflow=hidden;fillColor=none;top=0;left=0;bottom=0;right=0;pointerEvents=1;glass=0;" vertex="1" parent="135">
                    <mxGeometry x="125" width="125" height="40" as="geometry">
                        <mxRectangle width="125" height="40" as="alternateBounds"/>
                    </mxGeometry>
                </mxCell>
                <mxCell id="138" value="" style="shape=tableRow;horizontal=0;startSize=0;swimlaneHead=0;swimlaneBody=0;top=0;left=0;bottom=0;right=0;collapsible=0;dropTarget=0;fillColor=none;points=[[0,0.5],[1,0.5]];portConstraint=eastwest;glass=0;" vertex="1" parent="134">
                    <mxGeometry y="40" width="250" height="40" as="geometry"/>
                </mxCell>
                <mxCell id="139" value="quizList" style="shape=partialRectangle;html=1;whiteSpace=wrap;connectable=0;overflow=hidden;fillColor=none;top=0;left=0;bottom=0;right=0;pointerEvents=1;glass=0;" vertex="1" parent="138">
                    <mxGeometry width="125" height="40" as="geometry">
                        <mxRectangle width="125" height="40" as="alternateBounds"/>
                    </mxGeometry>
                </mxCell>
                <mxCell id="140" value="クイズ" style="shape=partialRectangle;html=1;whiteSpace=wrap;connectable=0;overflow=hidden;fillColor=none;top=0;left=0;bottom=0;right=0;pointerEvents=1;glass=0;" vertex="1" parent="138">
                    <mxGeometry x="125" width="125" height="40" as="geometry">
                        <mxRectangle width="125" height="40" as="alternateBounds"/>
                    </mxGeometry>
                </mxCell>
                <mxCell id="141" value="" style="shape=tableRow;horizontal=0;startSize=0;swimlaneHead=0;swimlaneBody=0;top=0;left=0;bottom=0;right=0;collapsible=0;dropTarget=0;fillColor=none;points=[[0,0.5],[1,0.5]];portConstraint=eastwest;glass=0;" vertex="1" parent="134">
                    <mxGeometry y="80" width="250" height="40" as="geometry"/>
                </mxCell>
                <mxCell id="142" value="daylyFunction" style="shape=partialRectangle;html=1;whiteSpace=wrap;connectable=0;overflow=hidden;fillColor=none;top=0;left=0;bottom=0;right=0;pointerEvents=1;glass=0;" vertex="1" parent="141">
                    <mxGeometry width="125" height="40" as="geometry">
                        <mxRectangle width="125" height="40" as="alternateBounds"/>
                    </mxGeometry>
                </mxCell>
                <mxCell id="143" value="最後の復習日" style="shape=partialRectangle;html=1;whiteSpace=wrap;connectable=0;overflow=hidden;fillColor=none;top=0;left=0;bottom=0;right=0;pointerEvents=1;glass=0;" vertex="1" parent="141">
                    <mxGeometry x="125" width="125" height="40" as="geometry">
                        <mxRectangle width="125" height="40" as="alternateBounds"/>
                    </mxGeometry>
                </mxCell>
                <mxCell id="145" value="[DB]&lt;br&gt;lastExecutedDate&lt;br&gt;更新" style="whiteSpace=wrap;html=1;rounded=1;glass=0;" vertex="1" parent="1">
                    <mxGeometry x="554" y="500" width="120" height="60" as="geometry"/>
                </mxCell>
            </root>
        </mxGraphModel>
    </diagram>
</mxfile>